<svg
   viewBox="0 0 4.0428319 7.8881211"
   version="1.1"
   xmlns="http://www.w3.org/2000/svg"
   xmlns:svg="http://www.w3.org/2000/svg">
  <path
     d="m 2.0037749,6.9497321 c 0.642056,0 1.086557,-0.105833 1.333501,-0.310445 v -0.500944 c 0.49389,-0.613834 0.705556,-1.57339 0.705556,-2.349502 0,-0.557389 -0.112889,-1.023056 -0.500944,-1.023056 -0.169334,0 -0.225778,-0.04939 -0.261056,-0.155223 -0.05645,-0.176389 -0.183445,-0.261055 -0.366889,-0.261055 -0.127,0 -0.197556,0.07055 -0.331612,0.07055 -0.08467,0 -0.155222,-0.07761 -0.197555,-0.169333 -0.07761,-0.176389 -0.183445,-0.232834 -0.345723,-0.232834 -0.225778,0 -0.324555,0.05645 -0.529167,0.261056 0,-0.275167 -0.03528,-0.592667 -0.03528,-0.924278 0,-0.303389 0.02117,-0.62794504 0.02117,-0.79022304 C 1.4957759,0.15522306 1.3758319,6.4041132e-8 1.1359429,6.4041132e-8 0.81844195,6.4041132e-8 0.74083095,0.31750006 0.69144195,0.71966706 c -0.03528,0.28222304 -0.07056,0.67027904 -0.119944,1.02305704 -0.02822,0.1905 -0.03528,0.423333 -0.05644,0.642056 -0.04233,0.04939 -0.08467,0.141111 -0.09878,0.204611 -0.02822,0.134055 -0.09878,0.373944 -0.239889,0.705556 -0.127,0.303389 -0.176389001132205,0.705556 -0.176389001132205,1.128889 0,0.409223 0.112889001132205,0.663223 0.430390001132205,1.06539 0.324555,0.409222 0.359833,0.536223 0.359833,0.818445 0,0.08467 -0.0071,0.239889 -0.01411,0.331611 0.24694495,0.176389 0.74083395,0.310445 1.22766695,0.310445 z m 0.04939,0.938389 c 0.649112,0 1.643946,-0.127 1.643946,-0.585611 v -0.529167 c 0,-0.105833 -0.0635,-0.141111 -0.141111,-0.141111 h -0.04939 c 0.04939,0.02822 0.07056,0.05644 0.07056,0.105833 0,0.373945 -0.874889,0.500945 -1.524001,0.500945 -0.635,0 -1.51694495,-0.105834 -1.51694495,-0.500945 0,-0.04939 0.0071,-0.07055 0.04939,-0.105833 h -0.01411 c -0.105834,0 -0.169334,0.05644 -0.169334,0.141111 v 0.529167 c 0,0.451556 1.00894495,0.585611 1.65100095,0.585611 z"/>
</svg>
